<?xml version="1.0" standalone="no"?>
<!DOCTYPE svg PUBLIC "-//W3C//DTD SVG 20010904//EN"
 "http://www.w3.org/TR/2001/REC-SVG-20010904/DTD/svg10.dtd">
<svg version="1.0" xmlns="http://www.w3.org/2000/svg"
 width="400.000000pt" height="400.000000pt" viewBox="0 0 1200.000000 1200.000000"
 preserveAspectRatio="xMidYMid meet">
<metadata>
Created by potrace 1.15, written by Peter Selinger 2001-2017
</metadata>
<g transform="translate(0.000000,1200.000000) scale(0.100000,-0.100000)"
fill="#000000" stroke="none">
<path d="M3185 10839 c-156 -12 -554 -117 -767 -202 -95 -38 -317 -161 -430
-239 -93 -64 -278 -235 -354 -327 -193 -235 -255 -326 -360 -536 -117 -233
-150 -333 -208 -635 -48 -248 -53 -303 -55 -525 -3 -459 75 -782 262 -1076 23
-36 56 -88 72 -114 31 -49 156 -222 224 -310 84 -108 300 -312 392 -371 22
-14 61 -41 86 -60 142 -108 491 -228 725 -249 43 -4 84 -13 93 -19 13 -9 16
-32 17 -116 0 -178 -28 -244 -145 -336 -79 -63 -90 -87 -93 -214 -5 -152 -7
-159 -70 -223 -30 -32 -59 -57 -64 -57 -14 0 -214 -227 -237 -272 -33 -59 -31
-130 3 -180 32 -46 52 -52 147 -46 52 3 86 12 121 31 45 24 51 25 77 11 48
-24 126 -18 199 17 57 27 194 138 268 217 l23 24 46 -47 c39 -39 52 -46 76
-42 l29 4 -7 -60 c-4 -33 -11 -72 -15 -86 -4 -14 -6 -188 -4 -386 4 -353 5
-363 35 -525 33 -176 65 -294 106 -400 14 -36 38 -99 53 -140 42 -112 141
-333 194 -435 70 -133 184 -278 354 -454 57 -58 111 -119 119 -136 9 -16 22
-34 29 -40 7 -5 29 -37 49 -69 38 -64 45 -115 20 -140 -19 -18 -19 -26 0 -26
8 0 22 11 31 25 14 22 14 29 0 77 -8 29 -27 68 -41 87 -39 54 -30 55 33 5 108
-88 151 -195 102 -257 -13 -16 -31 -27 -46 -27 -13 0 -24 -4 -24 -10 0 -22 53
-9 81 19 23 24 29 38 29 74 0 78 -55 179 -119 218 -14 9 -57 49 -96 89 -38 40
-87 85 -107 100 -40 30 -181 191 -265 305 -48 64 -191 335 -209 395 -4 14 -24
61 -46 105 -44 89 -128 308 -128 332 0 9 -11 45 -24 82 -13 36 -29 100 -36
141 -7 41 -18 107 -26 146 -19 101 -24 173 -28 494 -4 283 1 356 34 482 27 98
145 193 276 221 109 24 142 33 194 52 47 17 227 132 249 159 27 33 29 14 5
-56 -25 -74 -33 -191 -14 -203 21 -13 89 -142 95 -182 5 -33 2 -48 -13 -70
-74 -108 -82 -125 -82 -188 0 -81 25 -118 105 -159 95 -49 175 -107 175 -127
0 -10 -19 -40 -43 -67 -83 -93 -84 -185 -4 -259 50 -46 102 -59 193 -48 46 6
95 -2 122 -20 1 -1 -16 -20 -38 -42 -43 -43 -51 -82 -30 -138 12 -30 79 -64
128 -65 70 0 162 -67 162 -118 0 -38 -20 -64 -87 -108 -55 -37 -56 -39 -31
-42 16 -2 56 11 100 33 l73 36 -74 -75 c-73 -74 -75 -76 -79 -133 -5 -81 18
-112 138 -185 60 -36 125 -87 175 -136 99 -98 185 -155 185 -122 0 5 -17 18
-37 29 -37 19 -74 52 -162 144 -24 25 -71 60 -105 78 -139 73 -176 112 -176
185 0 33 10 47 100 138 55 56 115 124 133 151 36 56 64 66 91 36 27 -30 14
-62 -48 -115 -75 -64 -108 -123 -113 -205 -8 -105 18 -131 217 -219 74 -33
204 -147 226 -199 32 -74 5 -140 -106 -258 -55 -59 -94 -151 -87 -205 11 -85
38 -113 131 -132 52 -11 61 -17 84 -52 38 -61 113 -137 150 -153 18 -7 30 -17
28 -22 -7 -10 42 -21 96 -21 64 0 113 -35 138 -98 43 -114 14 -195 -103 -289
-41 -34 -88 -68 -103 -76 -27 -14 -63 -54 -91 -102 -7 -11 -12 -44 -13 -74 0
-48 3 -57 34 -85 38 -37 156 -109 164 -101 3 3 -14 24 -36 47 -31 31 -42 50
-42 72 0 57 95 174 196 241 56 37 104 87 131 138 14 25 18 56 18 149 0 75 -4
121 -11 128 -9 9 -12 -19 -10 -112 1 -122 0 -125 -29 -173 -21 -34 -63 -75
-128 -125 -115 -88 -177 -167 -185 -236 -2 -24 -8 -44 -12 -44 -4 0 -22 13
-39 29 -25 24 -31 37 -31 73 0 69 32 110 155 200 104 75 125 98 151 156 30 65
30 110 2 193 -15 47 -31 73 -59 97 -57 49 -188 208 -205 247 -19 46 -18 63 7
109 30 57 40 86 29 86 -15 0 -70 -116 -70 -148 0 -40 35 -100 114 -193 56 -66
64 -81 45 -75 -13 3 -44 9 -69 13 -25 3 -57 12 -71 19 -35 18 -147 149 -141
167 1 4 -4 15 -13 23 -20 21 -19 43 6 111 17 45 41 78 104 143 86 90 115 126
115 147 0 21 -18 15 -25 -9 -4 -11 -44 -60 -90 -107 -89 -93 -132 -164 -142
-237 l-6 -46 -34 7 c-84 16 -116 51 -114 127 0 27 10 66 22 89 20 41 30 53
129 161 100 110 89 212 -37 330 -56 52 -118 86 -214 118 -118 40 -159 78 -159
149 0 68 43 149 115 216 57 54 65 65 65 98 0 45 -33 72 -80 65 -28 -4 -31 -1
-40 32 -10 38 -70 90 -205 180 -27 19 -63 44 -79 57 -16 14 -58 38 -93 55 -77
38 -156 115 -190 186 -25 51 -25 54 -10 93 15 37 15 44 0 80 -10 27 -26 44
-49 55 -18 9 -51 36 -74 60 -22 24 -44 44 -49 44 -4 0 -13 12 -20 28 -8 15
-18 35 -23 46 -6 11 -7 63 -3 130 9 151 -5 230 -58 326 -37 67 -41 82 -42 145
0 112 30 179 118 257 69 61 102 94 259 260 74 78 108 134 202 338 24 52 49
113 56 135 7 22 25 74 40 115 16 41 35 100 44 130 20 71 86 414 86 448 0 15 9
56 20 91 10 36 22 99 25 140 7 92 20 155 48 241 20 58 32 75 117 157 52 50 96
90 98 88 2 -2 -4 -17 -13 -34 -15 -31 -15 -32 12 -55 22 -20 26 -27 16 -37
-18 -18 -16 -69 3 -90 15 -17 14 -21 -17 -61 -18 -24 -43 -55 -57 -69 -14 -17
-20 -29 -13 -33 31 -19 409 450 439 544 16 51 15 60 -3 60 -31 0 -35 35 -10
73 26 38 31 62 15 72 -10 6 -47 -32 -101 -104 -21 -27 -43 -45 -56 -46 -13 -1
-26 -4 -29 -8 -3 -3 -16 -2 -29 3 -14 5 -36 4 -61 -5 -22 -7 -83 -13 -138 -13
-94 0 -101 -1 -118 -25 -10 -13 -43 -44 -73 -67 -57 -44 -70 -66 -34 -57 19 5
18 2 -7 -24 -16 -17 -41 -38 -56 -47 -16 -9 -28 -25 -28 -36 0 -11 -37 -54
-92 -106 -53 -50 -88 -89 -81 -93 11 -7 27 5 113 86 30 29 69 63 85 77 l30 25
-25 -30 c-14 -16 -44 -50 -67 -75 -60 -63 -59 -98 1 -42 l30 27 -31 -40 c-17
-22 -40 -49 -52 -59 -12 -11 -19 -26 -16 -36 5 -17 -67 -92 -165 -172 -46 -37
-49 -64 -5 -37 54 33 199 175 246 243 66 94 126 181 163 237 36 54 150 153
200 174 43 18 86 19 86 3 0 -7 -23 -24 -50 -37 -28 -14 -61 -40 -75 -60 -13
-20 -56 -67 -95 -106 -38 -38 -70 -74 -70 -80 0 -6 -9 -30 -20 -53 -28 -58
-50 -156 -50 -227 0 -55 -19 -168 -34 -205 -4 -8 -13 -56 -21 -105 -42 -262
-67 -386 -90 -444 -13 -35 -39 -109 -56 -165 -17 -55 -58 -156 -90 -223 -33
-67 -59 -125 -59 -127 0 -9 -86 -118 -133 -170 -27 -29 -50 -46 -57 -41 -7 4
-24 -5 -41 -21 -36 -34 -38 -20 -4 27 21 28 23 35 11 37 -13 3 -10 12 14 47
17 24 30 47 30 50 0 16 -22 -6 -81 -80 -75 -96 -259 -285 -276 -285 -7 0 -13
-4 -13 -9 0 -6 -25 -28 -56 -50 -62 -45 -111 -113 -68 -97 8 3 12 2 9 -4 -3
-6 -14 -10 -24 -10 -10 0 -48 -11 -85 -25 -36 -14 -66 -21 -66 -16 0 6 5 13
11 16 6 4 24 25 40 47 22 32 26 44 18 55 -13 15 -36 2 -48 -27 -3 -8 -29 -36
-57 -62 l-50 -47 -155 -6 c-182 -6 -227 -19 -295 -80 -42 -39 -55 -45 -93 -45
-61 0 -123 -32 -173 -91 -33 -39 -48 -49 -73 -49 -60 0 -121 -30 -207 -103
-71 -59 -98 -75 -153 -91 -49 -14 -75 -17 -94 -10 -60 22 -75 133 -26 204 34
49 155 173 241 248 40 34 71 72 90 110 27 53 29 65 29 172 0 136 6 148 109
226 104 79 130 157 117 357 -3 59 -5 111 -3 117 2 5 13 10 23 10 18 0 20 -5
14 -44 -5 -29 -3 -46 5 -51 21 -13 39 19 54 100 9 44 20 100 25 125 18 82 50
254 65 349 9 52 21 101 28 110 7 9 22 32 32 51 11 19 31 53 45 75 28 44 101
212 138 320 36 104 31 98 261 330 132 134 201 191 270 227 61 32 73 37 226 92
55 20 106 42 115 50 30 26 368 115 389 102 5 -3 20 1 33 8 14 7 39 13 57 14
38 1 109 47 146 97 19 24 32 33 39 27 17 -13 84 -3 98 14 10 12 14 12 25 -3
12 -17 14 -17 38 6 31 30 44 22 21 -12 -19 -29 -12 -36 32 -33 22 1 44 13 67
35 34 33 37 34 62 21 24 -13 28 -13 45 9 30 37 25 61 -12 61 -24 0 -30 3 -25
16 3 9 9 33 12 55 9 53 20 57 34 13 7 -19 18 -38 26 -41 22 -8 25 -38 8 -88
-12 -36 -13 -50 -4 -59 9 -8 19 -3 39 22 15 17 33 32 41 32 7 0 19 8 27 18 12
15 13 12 7 -27 l-6 -44 36 7 c32 6 36 5 36 -14 0 -15 6 -20 25 -20 14 0 28 -7
31 -15 8 -19 44 -20 44 -1 0 7 7 30 16 51 14 34 16 36 28 19 8 -11 19 -15 31
-11 12 5 16 3 12 -7 -8 -20 13 -36 46 -36 26 0 28 -2 22 -29 -10 -45 11 -46
41 -1 15 22 34 40 44 40 9 0 27 11 40 25 30 32 144 85 182 85 18 0 38 9 52 25
19 21 25 23 30 10 8 -22 45 -18 94 10 30 17 52 23 71 19 18 -4 38 0 54 11 34
22 47 13 47 -32 0 -64 31 -157 77 -234 50 -82 71 -100 144 -117 25 -6 77 -30
115 -52 38 -22 74 -40 81 -40 6 0 33 -16 58 -36 53 -40 89 -41 62 -1 -19 28
-234 144 -314 169 -54 16 -66 25 -93 64 -66 98 -100 203 -100 307 0 73 15 81
29 15 36 -172 120 -318 208 -364 23 -12 54 -31 68 -42 14 -11 55 -25 92 -32
37 -6 75 -16 85 -21 27 -15 58 -83 58 -129 0 -41 21 -57 34 -24 20 53 -21 152
-78 190 -14 9 -26 25 -26 35 0 10 -12 25 -27 33 -68 35 -119 124 -157 278 -13
51 -27 125 -30 163 l-7 70 21 -37 c11 -20 24 -40 30 -43 5 -3 10 -21 10 -38 0
-46 25 -121 67 -206 41 -81 109 -150 188 -191 60 -31 84 -74 99 -182 21 -149
-3 -228 -70 -228 -12 0 -27 -6 -31 -14 -4 -8 -17 -15 -28 -18 -11 -2 -20 -10
-20 -18 0 -37 178 -38 239 -1 18 12 52 49 76 83 42 63 42 64 36 131 -6 68 -31
132 -60 156 -20 17 -20 31 -1 31 8 0 46 29 84 65 38 37 86 71 109 79 22 8 58
26 80 40 37 23 52 26 166 29 69 2 126 0 126 -4 0 -5 9 -9 20 -9 17 0 19 -5 14
-25 -4 -18 -1 -27 10 -31 9 -3 14 -10 11 -14 -3 -5 0 -12 7 -16 7 -5 24 7 45
31 39 45 44 35 8 -17 -51 -75 -14 -80 58 -8 44 45 51 48 62 33 7 -9 10 -25 7
-36 -5 -18 -2 -19 34 -13 21 5 44 11 49 16 17 14 73 5 98 -15 45 -38 67 -47
83 -34 11 9 17 9 28 0 8 -6 18 -11 22 -9 11 3 120 -54 248 -129 97 -57 277
-225 350 -328 41 -58 197 -346 306 -565 126 -255 162 -324 218 -421 15 -25 62
-108 105 -185 43 -76 87 -152 96 -169 10 -16 47 -81 82 -143 97 -174 159 -233
229 -218 39 7 38 -1 -6 -47 -65 -68 -133 -88 -277 -78 -10 0 -15 6 -12 11 12
19 -23 21 -118 6 -53 -9 -133 -16 -178 -16 -132 0 -158 32 -37 46 32 4 63 13
69 20 12 15 4 49 -9 40 -5 -3 -42 -12 -83 -21 -75 -15 -271 -12 -294 5 -5 5
-48 16 -95 26 -251 52 -486 223 -593 431 -23 46 -45 83 -48 83 -12 0 -19 -61
-19 -153 0 -50 -3 -88 -6 -85 -3 3 -12 32 -21 65 -8 32 -19 63 -25 70 -11 13
-58 187 -58 214 0 9 18 29 41 45 41 28 59 57 59 95 0 32 -27 21 -57 -23 -16
-24 -49 -54 -73 -67 l-45 -25 33 37 c17 21 32 47 32 57 0 30 -13 24 -34 -14
-10 -18 -36 -43 -58 -56 -34 -19 -50 -22 -107 -18 -91 7 -177 50 -165 83 3 6
37 10 82 10 71 0 83 3 121 29 60 42 85 95 77 162 -3 29 -9 59 -12 68 -5 12 0
16 18 16 30 0 88 -52 88 -79 0 -31 44 -27 70 6 32 41 22 109 -21 146 -18 15
-44 27 -57 27 -19 0 -23 4 -17 18 4 9 10 55 13 102 3 60 10 92 23 110 11 14
23 58 30 105 31 225 -39 376 -290 623 -122 121 -158 146 -168 117 -4 -14 157
-206 308 -366 75 -79 109 -171 109 -294 0 -91 -12 -132 -53 -181 -18 -21 -37
-47 -40 -58 -6 -16 -4 -18 23 -13 l30 6 -5 -47 c-5 -52 -15 -102 -20 -102 -2
0 -34 14 -72 31 -64 29 -73 31 -158 26 -97 -6 -210 -34 -287 -71 -27 -13 -50
-21 -52 -17 -2 3 -7 22 -11 41 -16 88 86 244 197 299 50 25 74 31 128 31 73 0
97 -12 102 -50 2 -14 10 -25 18 -25 11 0 15 10 14 38 -2 60 -20 71 -116 71
-138 1 -218 -32 -279 -117 -23 -31 -29 -36 -29 -20 0 32 56 132 109 193 26 30
58 73 71 95 13 22 39 58 57 79 38 45 39 49 18 70 -8 8 -15 19 -15 25 0 6 -7
11 -15 11 -12 0 -35 28 -35 44 0 2 25 12 56 21 41 12 54 19 46 27 -15 15 -96
-7 -145 -40 -50 -33 -89 -84 -131 -169 -42 -84 -56 -135 -92 -325 -25 -134
-26 -154 -15 -219 10 -63 18 -84 50 -139 5 -8 17 -34 26 -57 10 -23 39 -68 66
-99 27 -32 49 -64 49 -72 0 -8 26 -44 58 -81 32 -36 78 -102 102 -146 24 -44
98 -172 163 -285 66 -113 133 -234 149 -270 16 -36 40 -87 53 -115 14 -27 40
-86 58 -130 31 -75 37 -84 107 -137 43 -32 98 -64 128 -73 51 -17 57 -17 120
0 37 10 92 29 122 42 84 37 128 40 170 11 36 -24 78 -96 79 -133 1 -12 5 -25
10 -30 17 -19 40 -112 57 -230 19 -134 19 -127 8 -210 -5 -45 -15 -69 -38 -97
-40 -48 -140 -120 -158 -113 -8 3 -32 -6 -54 -21 -21 -15 -54 -31 -71 -36 -32
-9 -161 -91 -234 -149 -20 -16 -40 -29 -44 -29 -3 0 -22 -12 -41 -26 -33 -25
-34 -26 -34 -6 0 13 12 28 30 39 28 16 40 33 23 33 -29 0 -323 -227 -344 -266
-26 -49 3 -33 113 62 62 54 100 84 84 67 -15 -17 -25 -36 -22 -41 3 -6 -6 -20
-21 -32 -25 -19 -73 -82 -73 -94 0 -20 35 1 73 44 25 27 49 50 54 50 5 0 24
16 43 35 57 59 53 27 -5 -38 -30 -34 -55 -68 -55 -74 0 -21 26 -15 43 10 36
51 106 117 119 112 8 -3 21 1 28 10 7 8 17 15 23 15 7 0 -19 -31 -57 -69 -38
-38 -66 -75 -64 -82 5 -14 148 124 148 142 0 5 7 9 15 9 22 0 19 -14 -11 -49
-26 -32 -27 -61 0 -61 7 0 16 7 20 15 3 8 10 15 15 15 6 0 8 -7 5 -15 -17 -42
23 -92 164 -209 64 -53 83 -74 88 -101 8 -46 -6 -66 -93 -135 -74 -59 -77 -60
-137 -59 -33 0 -110 4 -171 9 -145 12 -353 12 -376 -1 -10 -5 -58 -16 -106
-24 -234 -37 -268 -45 -347 -84 -104 -50 -241 -103 -342 -131 -103 -28 -196
-21 -324 27 -26 10 29 21 108 22 93 1 204 26 262 58 27 15 69 27 103 30 31 3
57 10 57 15 0 30 -114 26 -175 -6 -16 -9 -37 -16 -45 -16 -8 0 -28 -7 -45 -16
-80 -44 -372 -4 -475 65 -81 54 -249 232 -317 334 -134 202 -136 277 -16 564
17 39 47 92 67 116 20 25 33 48 27 51 -17 11 -77 -72 -129 -177 -61 -123 -67
-140 -87 -242 -9 -44 -17 -81 -19 -82 -5 -5 -103 151 -165 263 -76 137 -155
220 -228 239 -35 9 -53 10 -68 2 -17 -10 -13 -12 31 -18 28 -3 60 -11 71 -17
43 -24 110 -114 168 -227 110 -217 366 -583 502 -720 99 -99 201 -184 258
-212 22 -11 54 -28 72 -37 36 -19 117 -42 213 -61 72 -14 177 -9 200 10 20 16
225 89 325 116 112 30 303 40 430 23 116 -15 200 -35 246 -58 18 -9 40 -16 49
-16 20 0 81 -64 106 -112 14 -25 18 -57 18 -138 0 -90 -4 -113 -25 -161 -48
-109 -24 -100 -269 -102 -137 -1 -235 3 -270 11 -64 14 -230 19 -310 9 -59 -7
-211 -57 -236 -78 -8 -6 -17 -9 -20 -6 -3 3 -25 -1 -47 -10 -27 -10 -70 -15
-118 -14 -61 2 -94 -3 -155 -24 -94 -32 -294 -133 -301 -152 -7 -19 4 -28 19
-16 25 19 150 84 154 80 3 -2 -2 -10 -11 -17 -8 -7 -15 -18 -15 -24 0 -6 -14
-20 -30 -31 -29 -19 -40 -45 -21 -45 5 0 22 11 38 23 43 36 116 75 130 70 7
-3 29 5 48 17 38 23 49 12 13 -13 -13 -8 -34 -25 -48 -37 -14 -12 -44 -38 -67
-57 -42 -35 -53 -53 -32 -53 6 0 58 39 116 87 62 51 108 82 111 75 3 -9 9 -9
23 -1 11 6 25 9 30 7 6 -2 -30 -29 -79 -61 -92 -59 -120 -83 -109 -94 4 -3 55
26 115 66 101 65 184 109 122 64 -53 -39 -91 -76 -87 -87 2 -6 -5 -31 -16 -54
-12 -28 -21 -77 -24 -135 -5 -84 -3 -94 17 -119 12 -16 28 -28 36 -28 19 0 18
5 -12 37 -25 27 -26 32 -21 114 3 70 10 98 33 144 18 36 30 51 32 40 3 -13 11
-16 31 -12 l28 6 -14 -52 c-8 -29 -17 -82 -20 -119 -5 -60 -3 -71 21 -112 15
-25 31 -46 36 -46 5 0 17 -15 26 -33 9 -17 25 -37 34 -44 28 -20 53 -81 45
-111 -12 -51 -135 -241 -171 -264 -6 -4 -23 -25 -38 -47 -23 -32 -40 -44 -90
-60 -103 -33 -167 -68 -239 -128 -83 -70 -113 -111 -161 -225 -49 -113 -58
-203 -28 -271 28 -64 106 -143 192 -197 40 -25 92 -62 117 -82 53 -45 78 -50
69 -13 -6 23 -72 94 -88 95 -4 0 -18 19 -32 43 -67 115 -52 411 26 517 78 104
105 133 174 185 107 80 275 249 302 305 19 40 21 55 15 134 -6 84 -8 91 -46
138 -46 59 -54 100 -37 192 15 80 50 138 121 198 59 50 88 63 119 53 17 -5 20
-15 20 -59 0 -57 26 -108 93 -183 46 -51 74 -110 91 -187 18 -89 13 -122 -33
-218 -49 -100 -86 -134 -263 -246 -121 -76 -287 -201 -318 -239 -61 -73 -102
-138 -127 -198 -15 -39 -38 -81 -50 -94 l-22 -23 16 68 c29 131 73 202 172
276 31 23 88 69 126 103 189 163 268 257 300 361 19 59 33 264 18 264 -6 0
-13 -45 -16 -103 -7 -128 -27 -195 -83 -273 -48 -67 -225 -234 -342 -321 -112
-85 -168 -170 -207 -313 -26 -97 -13 -260 26 -346 11 -22 39 -57 63 -77 34
-28 48 -49 60 -89 20 -67 23 -71 71 -96 35 -17 54 -20 139 -16 92 4 136 15
136 32 0 5 -54 6 -120 4 l-119 -4 -31 30 c-35 35 -43 80 -11 60 14 -9 26 -8
50 2 43 17 39 31 -6 25 -47 -7 -54 -2 -86 61 -42 82 -60 202 -47 315 21 192
45 252 134 338 77 74 113 101 311 233 88 59 172 119 187 135 15 16 48 69 74
118 76 146 73 235 -13 385 -55 97 -58 145 -11 232 50 94 168 187 238 188 14 0
50 9 80 21 46 18 66 20 125 14 119 -12 154 -9 191 20 82 63 124 171 124 319 0
87 -4 109 -26 156 -14 30 -36 67 -50 81 l-25 26 63 33 c84 43 248 163 331 242
59 56 67 68 67 100 0 34 -8 44 -104 133 -57 53 -120 107 -140 121 -75 51 -48
99 199 349 224 227 250 261 271 350 18 80 15 272 -6 285 -6 4 -15 35 -20 70
-5 35 -16 78 -24 95 -8 16 -19 48 -25 71 -13 48 -65 124 -86 124 -8 0 -19 9
-25 21 -10 18 -17 20 -63 14 -29 -4 -63 -13 -77 -21 -29 -16 -127 -51 -187
-66 -57 -15 -113 2 -182 55 l-55 42 -2 155 c-2 85 -6 207 -11 272 -4 64 -6
147 -3 184 5 67 5 67 20 38 100 -195 380 -384 630 -424 30 -5 63 -13 75 -18
42 -19 212 -71 270 -82 45 -10 91 -10 182 -2 75 6 140 6 170 1 84 -16 260 13
315 52 59 42 121 197 104 262 -10 40 -27 33 -61 -26 -42 -72 -59 -72 -126 1
-38 42 -99 140 -200 323 -81 145 -154 279 -163 297 l-17 32 118 1 c65 0 138 4
163 9 25 5 72 14 105 20 33 6 105 25 160 41 274 83 335 118 630 362 164 136
208 189 336 404 112 189 235 507 264 684 36 219 50 739 27 1029 -18 241 -34
325 -108 551 -94 290 -160 416 -318 606 -49 60 -101 118 -115 131 -43 39 -212
146 -276 174 -192 86 -329 138 -386 147 -254 42 -514 16 -774 -77 -287 -102
-262 -92 -522 -226 -155 -80 -315 -128 -428 -127 -74 0 -201 38 -294 87 -85
46 -104 22 -77 -97 21 -94 65 -153 168 -225 146 -103 242 -120 749 -128 369
-7 432 -21 674 -147 193 -100 272 -175 349 -328 123 -243 167 -432 168 -711 1
-290 -45 -506 -140 -651 -71 -109 -190 -225 -269 -261 -165 -78 -442 -27 -592
109 -79 71 -233 258 -352 427 -60 85 -244 313 -298 370 -120 125 -470 392
-611 464 -52 27 -122 59 -155 72 -33 12 -87 33 -120 46 -168 66 -379 84 -525
44 -105 -29 -211 -70 -235 -90 -19 -16 -53 -39 -235 -155 -42 -27 -91 -50
-113 -53 -30 -4 -41 -11 -49 -31 l-10 -26 -21 28 c-79 101 -196 192 -362 281
-75 40 -258 114 -309 126 -177 39 -522 47 -686 15 -101 -20 -148 -38 -295
-113 -148 -75 -232 -133 -356 -244 -122 -111 -365 -365 -421 -440 -94 -128
-158 -208 -233 -292 -44 -49 -97 -110 -118 -135 -181 -217 -431 -414 -688
-542 -72 -37 -92 -42 -168 -46 -97 -5 -85 -11 -217 98 -132 108 -171 164 -254
364 -24 59 -30 93 -41 225 -36 474 110 925 385 1193 45 43 117 105 161 138 81
61 194 146 244 186 38 30 176 66 376 98 94 15 184 29 200 30 89 9 499 5 560
-4 134 -22 241 -29 415 -27 201 2 283 19 427 87 45 22 85 39 88 39 17 0 124
92 146 127 47 70 69 114 69 139 0 30 -16 31 -83 2 -46 -20 -69 -23 -187 -23
l-135 0 -80 39 c-44 20 -96 50 -115 64 -122 93 -228 155 -340 199 -107 41
-193 74 -225 84 -27 9 -269 36 -320 36 -23 0 -346 12 -475 17 -47 2 -130 0
-185 -5z m515 -61 c30 1 105 -5 165 -13 61 -8 144 -19 185 -24 111 -13 387
-103 447 -146 284 -204 448 -277 576 -255 28 5 76 13 105 18 l53 9 -6 -26 c-8
-31 -54 -82 -111 -122 -46 -32 -151 -69 -264 -94 -95 -21 -331 -38 -344 -25
-7 7 -2 10 12 10 13 0 22 6 22 16 0 9 9 18 19 21 24 6 31 41 31 154 0 90 -9
111 -36 88 -8 -6 -16 -10 -17 -8 -51 75 -59 81 -96 73 -35 -7 -45 -7 -85 -2
-18 3 -20 -3 -17 -87 2 -71 -2 -103 -19 -150 -12 -33 -24 -70 -27 -82 -5 -20
-12 -23 -49 -23 -42 0 -53 8 -37 24 4 4 13 34 20 68 7 33 20 70 30 80 14 15
19 41 22 109 1 49 -1 95 -7 102 -5 6 -12 24 -16 40 -3 15 -12 27 -20 27 -10 0
-14 -29 -19 -119 -3 -66 -13 -165 -23 -220 l-19 -100 -110 5 c-128 7 -141 9
-127 27 15 18 42 121 42 159 0 59 12 108 26 108 8 0 14 5 14 10 0 6 5 10 11
10 10 0 9 -94 -3 -200 -2 -16 2 -25 11 -25 15 0 25 25 36 88 4 23 11 37 20 37
20 0 19 -58 -1 -110 -11 -28 -13 -45 -7 -51 14 -14 40 23 53 72 6 22 18 39 29
42 13 3 20 18 24 52 10 67 9 152 -2 173 -4 9 -16 35 -26 57 -29 66 -31 70 -51
70 -17 0 -19 -7 -15 -72 2 -49 -1 -73 -8 -73 -6 0 -11 15 -11 34 0 38 -19 98
-34 108 -21 14 -47 -12 -45 -45 2 -18 1 -45 0 -62 -2 -26 -3 -28 -11 -10 -5
11 -9 41 -9 68 -1 39 -4 47 -19 47 -38 0 -49 -30 -57 -153 -3 -64 -10 -131
-15 -147 -5 -18 -5 -32 1 -36 17 -10 39 17 39 50 0 17 5 38 11 46 15 22 0
-135 -18 -185 -27 -77 -37 -85 -104 -85 -54 0 -60 2 -54 18 15 35 55 157 55
168 0 6 10 18 22 26 26 18 57 136 57 223 1 69 -6 83 -39 87 -24 3 -25 1 -37
-105 -13 -123 -44 -264 -74 -340 -11 -27 -18 -56 -15 -64 4 -10 -16 -13 -100
-13 l-106 0 9 33 c4 17 8 102 8 187 0 175 -24 313 -56 331 -22 11 -33 -4 -21
-28 5 -10 17 -53 26 -95 23 -101 20 -389 -4 -411 -8 -7 -60 -24 -114 -37 -55
-12 -156 -43 -225 -67 -106 -38 -135 -52 -191 -99 -93 -79 -93 -79 -154 -118
-30 -19 -94 -72 -142 -116 -47 -44 -89 -80 -93 -80 -3 0 -18 19 -33 42 -22 36
-25 44 -13 51 8 4 15 15 15 23 0 22 -64 98 -97 115 -15 7 -73 54 -128 103
-163 145 -235 192 -235 153 0 -7 19 -28 43 -46 23 -19 33 -30 22 -26 -51 20
-75 18 -84 -6 -13 -35 10 -68 114 -162 50 -45 121 -114 159 -154 66 -70 96
-88 96 -60 0 15 -145 167 -252 264 -38 34 -68 66 -68 72 0 22 29 10 95 -39 53
-39 71 -48 81 -39 11 9 33 -7 104 -77 91 -88 102 -104 76 -104 -28 0 -25 -18
7 -52 17 -19 42 -46 54 -61 l22 -26 -43 -58 c-24 -32 -60 -89 -80 -127 -21
-38 -48 -84 -62 -101 -13 -17 -31 -51 -39 -75 -8 -24 -19 -48 -24 -54 -5 -6
-23 -60 -41 -121 -17 -60 -33 -116 -35 -122 -6 -19 -113 47 -117 72 -3 22 -86
68 -153 85 -59 15 -141 39 -221 66 -82 28 -104 30 -104 9 0 -8 1 -15 3 -15 1
0 54 -18 117 -41 63 -22 140 -49 171 -59 31 -9 107 -50 169 -91 l112 -73 -5
-48 c-4 -27 -9 -53 -12 -58 -3 -5 -27 5 -53 22 -351 231 -612 372 -657 354
-20 -7 -19 -25 3 -33 111 -38 314 -141 352 -179 12 -12 12 -14 -4 -14 -10 0
-16 -6 -14 -12 5 -14 30 -29 93 -54 22 -9 35 -18 28 -21 -6 -2 -29 5 -50 16
-21 10 -63 26 -93 34 -336 94 -370 100 -370 72 0 -8 12 -17 28 -20 28 -6 246
-64 341 -91 30 -8 63 -21 75 -29 11 -7 38 -18 59 -25 21 -6 73 -27 115 -46 65
-28 79 -31 88 -19 6 8 19 12 30 9 18 -5 19 -16 19 -192 1 -172 3 -196 29 -302
18 -71 44 -145 69 -193 39 -76 158 -227 177 -227 6 0 10 -6 10 -12 0 -17 -159
-228 -171 -228 -21 0 -6 42 32 86 23 27 38 53 35 61 -3 8 -6 21 -6 29 0 24
-22 16 -51 -18 -16 -18 -28 -27 -29 -20 0 6 -7 12 -15 12 -18 0 -19 25 -4 69
16 45 0 58 -35 30 -19 -15 -31 -18 -38 -11 -7 7 1 28 26 70 20 33 36 67 36 76
0 29 -28 17 -47 -21 -11 -21 -29 -43 -40 -48 -12 -6 -28 -17 -36 -24 -9 -7
-21 -10 -27 -6 -13 8 3 40 41 80 22 25 27 37 24 70 -4 49 -15 85 -25 85 -5 0
-32 -16 -61 -35 -30 -19 -57 -35 -61 -35 -12 0 10 49 44 96 24 34 29 47 20 56
-9 9 -16 8 -29 -5 -16 -16 -18 -15 -30 15 -10 22 -10 34 -2 44 6 7 8 22 4 33
-3 10 -1 22 5 26 16 10 12 35 -5 35 -9 0 -34 -9 -57 -21 -31 -16 -46 -18 -62
-11 -19 9 -16 12 32 32 51 22 70 50 34 50 -10 0 -45 -7 -77 -16 -33 -8 -114
-22 -180 -30 -191 -23 -195 -23 -195 -45 0 -22 -8 -24 -158 -38 -121 -11 -132
-14 -132 -37 0 -17 2 -17 88 -5 101 15 195 20 186 12 -8 -7 -132 -42 -196 -56
-38 -7 -37 -35 1 -35 16 0 82 15 148 34 301 86 401 110 378 89 -20 -18 -272
-132 -363 -164 -84 -29 -93 -34 -88 -53 3 -12 6 -27 6 -33 0 -29 112 1 312 83
117 48 118 48 118 34 0 -14 -63 -44 -160 -75 -47 -16 -89 -31 -95 -35 -5 -4
-58 -22 -117 -40 -66 -21 -108 -39 -108 -47 0 -21 39 -15 149 22 57 19 107 32
112 29 4 -2 69 20 144 50 94 37 135 50 135 40 0 -19 -77 -57 -330 -159 -97
-39 -210 -75 -257 -82 -42 -6 -58 -25 -29 -36 46 -18 448 129 632 230 36 19
67 33 69 31 3 -2 -15 -20 -38 -40 -69 -58 -241 -149 -347 -185 -25 -8 -72 -27
-105 -43 -91 -43 -165 -75 -217 -95 -34 -12 -48 -23 -48 -36 0 -23 12 -24 53
-5 210 94 212 95 221 71 4 -12 19 -9 83 20 100 46 88 35 -34 -31 -80 -43 -98
-56 -98 -75 0 -20 -11 -27 -65 -45 -66 -23 -84 -39 -55 -50 32 -13 251 87 428
195 165 100 188 113 194 107 9 -9 -17 -36 -51 -53 -17 -9 -61 -38 -97 -64 -37
-27 -106 -67 -153 -90 -84 -39 -97 -51 -75 -64 14 -9 194 78 244 119 52 42
103 72 111 64 12 -13 -19 -50 -69 -82 -64 -40 -361 -187 -441 -218 -59 -23
-85 -48 -49 -48 35 0 134 41 286 117 83 41 145 68 138 59 -21 -25 -7 -43 28
-38 17 2 34 8 37 13 3 5 11 9 19 9 10 0 11 -5 2 -24 -14 -29 -167 -128 -318
-204 -109 -55 -142 -82 -102 -82 33 0 252 115 371 194 63 42 116 76 118 76 2
0 -12 -21 -32 -47 -20 -27 -63 -65 -95 -87 -33 -21 -59 -45 -59 -52 0 -16
-110 -91 -202 -139 -59 -30 -75 -55 -37 -55 24 0 77 29 219 123 81 53 106 65
108 53 5 -23 32 -20 75 9 25 18 37 21 37 12 0 -17 -206 -148 -322 -205 -82
-40 -120 -73 -99 -86 11 -7 197 91 326 173 163 104 213 129 203 101 -8 -22
-156 -122 -260 -175 -143 -72 -198 -107 -198 -122 0 -17 31 -16 56 2 12 8 71
39 131 69 111 56 255 152 350 234 42 35 52 49 47 67 -4 16 0 24 13 29 10 3 24
9 31 12 23 11 1 -48 -34 -93 -56 -69 -108 -117 -170 -159 -33 -21 -75 -51 -94
-65 -19 -15 -78 -50 -130 -79 -52 -29 -118 -65 -147 -81 l-51 -29 -50 63 c-28
34 -61 83 -74 108 -22 40 -50 87 -162 267 -34 56 -107 202 -125 252 -7 19 -17
44 -21 55 -10 26 -47 184 -59 255 -16 88 -24 182 -36 400 -8 140 20 437 49
522 9 25 27 102 41 170 29 142 38 170 77 255 15 34 28 64 28 68 0 13 112 228
176 340 35 61 89 139 120 175 113 129 340 362 394 404 75 58 251 165 330 201
36 16 72 34 80 40 82 59 388 170 530 192 19 3 40 9 46 15 7 5 36 13 65 19 30
5 83 16 119 24 50 11 117 13 295 8 127 -3 255 -5 285 -5z m6225 -33 c104 -4
201 -24 270 -55 75 -34 390 -189 423 -209 99 -58 265 -243 359 -401 71 -119
80 -139 130 -275 77 -210 123 -392 123 -490 0 -24 4 -55 10 -69 15 -40 21
-145 27 -493 3 -209 2 -327 -4 -335 -6 -7 -14 -46 -17 -87 -11 -110 -30 -205
-64 -311 -31 -99 -39 -122 -79 -233 -24 -65 -43 -80 -43 -33 0 13 -9 35 -20
49 -11 14 -20 29 -20 34 0 11 -68 75 -131 126 -38 29 -46 42 -45 66 1 17 2 31
4 31 12 0 156 -78 195 -106 28 -21 55 -33 64 -29 14 5 14 8 -2 25 -28 31 -176
123 -267 165 -51 24 -83 55 -58 55 15 0 99 -41 106 -51 8 -14 32 -10 36 6 2
11 19 5 73 -26 39 -22 85 -51 104 -64 39 -29 51 -31 51 -11 0 17 -70 76 -120
101 -19 10 -59 33 -88 53 -43 28 -51 38 -46 55 4 14 0 25 -17 38 -38 30 -4 22
49 -11 27 -16 55 -30 63 -30 8 0 23 -7 33 -15 11 -8 28 -15 38 -15 9 0 32 -13
50 -29 31 -27 70 -51 82 -51 3 0 6 5 6 11 0 14 -16 28 -90 76 -30 20 -79 60
-110 90 -51 49 -53 53 -29 53 14 0 40 -11 59 -25 37 -27 65 -20 39 11 -20 25
-117 88 -181 118 -101 48 -64 47 47 -1 83 -35 155 -93 185 -147 13 -25 28 -46
32 -46 15 0 8 35 -16 77 -14 24 -21 45 -16 48 4 3 8 21 8 40 0 29 -7 40 -41
65 -58 42 -31 37 66 -12 45 -24 85 -44 90 -46 4 -2 7 2 7 10 0 35 -214 127
-264 114 -15 -4 -33 1 -49 14 -14 12 -47 30 -72 41 -26 11 -45 22 -43 24 2 1
61 -9 131 -23 101 -20 131 -22 137 -12 12 19 43 4 84 -40 36 -39 56 -50 56
-30 0 25 -74 90 -121 105 -27 9 -51 21 -54 26 -9 14 27 10 55 -6 33 -19 60
-19 60 0 0 8 -4 15 -10 15 -5 0 -10 11 -10 23 0 15 -9 29 -22 36 -19 9 -11 10
44 6 65 -5 104 9 56 20 -43 9 -103 24 -183 45 -44 11 -111 23 -150 27 -38 3
-80 13 -93 21 -25 17 -178 12 -372 -11 -100 -11 -105 -13 -103 -34 2 -17 -4
-24 -25 -29 -15 -3 -44 -13 -65 -21 -20 -9 -39 -14 -40 -12 -2 2 -2 25 1 51 3
40 7 47 30 51 15 3 77 23 138 45 143 52 312 81 539 92 209 11 267 18 262 34
-7 22 -139 36 -152 16 -3 -5 -41 -10 -83 -10 -82 0 -187 -11 -342 -34 -93 -14
-176 -38 -312 -89 -148 -56 -3 49 167 121 133 56 207 80 270 85 33 3 51 3 40
0 -59 -15 -261 -86 -270 -94 -5 -6 -5 -13 1 -19 7 -7 40 0 100 20 203 70 310
92 449 95 72 1 131 6 133 10 2 5 -23 14 -54 21 -33 6 -60 18 -66 27 -5 10 -18
17 -30 17 -21 0 -21 1 -3 20 13 15 27 19 49 16 105 -16 116 -16 116 -2 0 14
-20 19 -132 32 -32 3 -55 10 -52 16 3 5 1 15 -6 23 -9 11 4 14 73 20 47 4 94
4 105 1 11 -4 23 -2 27 4 3 5 0 12 -7 14 -7 2 -30 9 -50 15 -29 9 -67 9 -184
-4 -143 -15 -223 -18 -179 -8 11 3 27 13 35 23 13 16 38 21 165 29 83 6 158
10 167 8 9 -1 17 3 18 8 1 6 -34 17 -77 26 -59 12 -71 17 -48 20 18 2 30 10
30 19 0 11 -15 16 -52 20 -96 10 -97 44 -3 55 39 5 60 12 60 20 0 21 -20 23
-135 10 -60 -7 -150 -16 -200 -19 l-90 -6 60 30 c33 16 90 39 128 51 68 21 83
31 72 48 -6 10 -117 -18 -170 -43 -83 -39 -145 -64 -141 -57 20 32 257 142
331 153 38 6 23 33 -20 36 -57 5 -63 17 -16 36 41 16 50 29 31 41 -6 4 -8 11
-4 16 3 5 1 16 -6 24 -9 10 -7 15 9 20 12 3 21 13 21 21 0 17 -34 18 -114 3
-79 -14 -93 -6 -24 15 65 19 79 33 53 53 -18 13 -18 13 1 28 17 14 18 16 2 25
-10 6 -14 18 -11 30 4 14 0 20 -10 20 -10 0 -13 6 -10 20 3 13 -1 22 -11 26
-15 6 -15 8 1 20 13 9 15 16 7 24 -8 8 -28 6 -75 -5 -80 -18 -79 -18 -79 1 0
14 -10 16 -72 11 -71 -6 -72 -5 -33 8 22 7 56 14 75 14 51 2 80 11 80 27 0 10
-14 14 -42 15 l-43 1 55 12 c38 8 56 17 58 29 4 22 -6 21 -138 -2 -58 -11
-106 -18 -108 -16 -4 4 91 40 146 54 25 7 42 18 42 26 0 18 -17 19 -76 4 -34
-9 -47 -9 -59 1 -11 9 -32 11 -70 6 -35 -4 -55 -2 -55 4 0 5 11 10 25 10 32 0
32 13 -1 39 -22 17 -24 22 -10 27 17 7 22 29 7 38 -4 3 -25 -3 -45 -14 -38
-19 -106 -18 -106 2 0 5 -10 13 -22 18 -23 9 -23 9 2 10 35 1 47 11 56 44 l7
28 -114 -6 c-63 -3 -141 -8 -174 -11 -57 -5 -58 -4 -25 8 68 24 13 42 -70 23
-34 -8 -35 -7 -12 9 25 18 21 35 -8 35 -23 0 -165 -66 -205 -95 -16 -12 -43
-30 -60 -40 -28 -16 -28 -15 6 16 20 19 70 52 110 75 67 37 101 74 68 74 -20
0 -177 -91 -219 -127 -21 -18 -41 -33 -44 -33 -16 0 -2 21 46 68 28 28 49 55
45 58 -11 11 -69 6 -97 -8 -14 -7 -42 -25 -64 -40 -28 -21 -43 -25 -56 -18 -9
5 -20 7 -23 3 -4 -3 -13 0 -21 7 -13 10 -22 8 -49 -9 -41 -25 -57 -27 -57 -6
0 25 -27 17 -125 -36 -116 -62 -155 -75 -155 -50 0 9 -5 22 -11 28 -19 19 10
49 70 73 31 13 79 34 106 47 28 13 73 30 100 37 28 8 109 32 180 54 156 49
169 51 265 45 41 -2 120 -6 175 -8z m220 -224 c-6 -5 -46 -20 -90 -34 -103
-32 -164 -59 -195 -85 -14 -12 -45 -36 -70 -54 -53 -39 -101 -123 -124 -215
-18 -68 -21 -143 -7 -143 10 0 21 35 21 71 0 49 40 156 74 201 56 73 199 154
321 182 38 9 23 -6 -25 -25 -60 -23 -152 -90 -221 -160 -69 -70 -89 -110 -104
-207 -8 -48 2 -132 14 -132 4 0 32 34 62 75 29 41 59 75 65 75 7 0 22 20 34
44 12 25 50 76 85 114 63 68 114 102 152 102 15 -1 14 -3 -7 -20 -14 -11 -28
-23 -32 -27 -54 -61 -81 -86 -126 -113 -42 -26 -50 -35 -41 -46 9 -11 19 -9
56 12 47 28 72 24 36 -6 -13 -10 -23 -22 -23 -26 0 -5 -24 -32 -52 -60 -85
-81 -149 -174 -122 -174 3 0 39 36 81 79 41 44 80 78 87 75 6 -2 34 7 61 21
66 33 72 32 41 -9 -14 -19 -26 -39 -26 -44 0 -5 -22 -34 -49 -64 -65 -75 -87
-109 -89 -135 -2 -42 16 -33 79 38 81 90 210 191 294 230 67 32 225 79 260 79
11 -1 -9 -13 -45 -29 -92 -40 -205 -109 -307 -187 -96 -72 -131 -108 -195
-196 -22 -32 -44 -58 -47 -58 -3 0 -17 15 -30 33 -82 110 -406 295 -591 336
-30 7 -73 17 -95 23 -23 6 -179 12 -360 14 -358 3 -434 10 -553 52 -93 33
-149 69 -198 126 -50 58 -96 156 -74 156 5 0 51 -18 102 -41 115 -51 183 -62
269 -44 83 17 175 40 217 53 28 9 33 8 42 -9 6 -11 8 -24 5 -29 -10 -17 -270
-94 -330 -97 -84 -5 -105 -11 -105 -29 0 -14 14 -15 103 -11 62 3 125 13 162
25 96 32 121 36 107 19 -7 -8 -46 -24 -88 -37 -68 -20 -97 -40 -81 -57 3 -3
36 4 73 15 63 19 69 20 81 4 11 -16 24 -11 141 50 93 48 132 64 140 56 8 -8
18 -6 37 6 15 10 33 15 40 12 8 -3 40 12 72 33 51 35 83 43 83 21 0 -12 -109
-62 -217 -100 -57 -20 -93 -38 -93 -46 0 -8 8 -14 19 -14 29 0 229 77 297 114
54 30 63 33 76 19 13 -13 23 -11 83 16 38 17 82 42 99 54 48 36 126 77 126 66
0 -5 -10 -26 -23 -47 -53 -84 -80 -173 -57 -187 6 -3 2 -21 -10 -43 -13 -23
-16 -38 -9 -41 12 -4 26 13 75 89 19 30 69 88 111 127 63 60 89 78 154 103 43
16 86 30 95 30 10 0 -27 -31 -82 -69 -114 -79 -172 -143 -226 -250 -42 -83
-46 -101 -23 -101 8 0 15 5 15 11 0 35 118 229 139 229 5 0 38 22 74 49 101
76 143 97 267 135 130 40 127 39 115 27z m-62 -151 c-29 -17 -61 -30 -73 -30
-15 0 -20 -7 -20 -25 0 -13 -10 -35 -22 -48 -70 -72 -136 -149 -175 -201 -40
-54 -43 -56 -43 -30 0 15 8 51 17 80 14 45 29 64 92 122 96 86 127 108 199
137 78 33 87 31 25 -5z m-5630 -104 c-3 -19 -1 -36 6 -40 12 -8 15 -76 4 -115
-6 -23 -8 -23 -72 -17 -36 4 -67 9 -69 11 -2 2 6 25 17 50 12 26 21 53 21 60
0 7 8 19 17 26 15 13 16 11 9 -11 -18 -59 -18 -70 -4 -70 17 0 44 57 53 113 3
21 10 35 15 32 5 -3 6 -20 3 -39z m5892 -346 c-4 -6 -4 -18 -1 -26 5 -13 9
-13 36 1 60 31 50 9 -15 -33 -130 -86 -319 -261 -313 -291 2 -9 11 -15 20 -13
9 1 19 -2 23 -8 10 -16 20 -12 56 21 100 90 259 186 285 171 13 -7 12 -11 -6
-27 -11 -10 -20 -23 -20 -29 0 -6 -20 -24 -45 -39 -98 -62 -253 -277 -212
-293 14 -5 19 -64 6 -64 -5 0 -9 6 -9 13 0 8 -14 43 -31 78 -34 71 -36 75 -91
171 l-39 67 110 107 c136 131 275 241 246 194z m325 -254 c0 -3 -24 -18 -52
-35 -55 -31 -112 -83 -107 -98 1 -4 -20 -19 -47 -32 -27 -13 -79 -42 -116 -63
-78 -45 -90 -47 -57 -12 32 34 243 194 257 194 5 0 34 11 64 25 57 27 58 27
58 21z m-5220 -179 c173 -4 177 -4 300 -44 69 -22 151 -52 183 -67 32 -14 61
-26 65 -26 12 0 174 -110 228 -155 64 -54 121 -111 134 -135 6 -11 19 -20 29
-20 29 0 43 -53 47 -180 l4 -115 -20 80 c-28 116 -45 160 -63 163 -11 2 -17
-3 -17 -15 -1 -10 -11 2 -25 29 -19 35 -32 48 -55 53 -41 9 -44 4 -29 -40 11
-31 11 -37 -1 -45 -13 -8 -16 3 -20 65 -6 77 -11 92 -29 80 -7 -4 -11 -49 -11
-115 0 -60 -4 -111 -10 -115 -17 -11 -42 100 -50 230 -5 72 -9 131 -9 133 -1
1 -10 2 -22 2 -18 0 -20 -4 -13 -46 5 -37 3 -47 -12 -59 -18 -13 -18 -15 -1
-78 20 -75 21 -100 6 -95 -18 6 -70 150 -77 213 -6 51 -10 60 -28 63 -22 3
-54 58 -54 91 0 23 -25 46 -34 32 -4 -6 -2 -47 4 -93 14 -113 13 -128 -6 -128
-13 0 -15 -6 -10 -27 14 -60 18 -113 9 -113 -22 0 -65 124 -74 213 -10 94 -38
177 -62 177 -23 0 -28 -12 -12 -36 8 -13 19 -41 24 -64 10 -47 2 -45 -14 2 -5
17 -16 33 -22 36 -22 7 -26 -28 -9 -80 9 -28 16 -62 16 -77 0 -20 -7 -12 -30
37 -28 59 -42 73 -54 53 -3 -5 7 -40 23 -77 65 -154 72 -178 64 -218 -8 -39
-9 -38 -62 99 -36 94 -59 139 -71 142 -12 3 -23 25 -35 68 -17 64 -36 92 -54
81 -6 -4 -3 -27 9 -61 19 -54 19 -55 0 -55 -31 0 -30 -13 0 -61 32 -48 52
-118 31 -105 -6 4 -27 38 -46 74 -42 82 -58 102 -79 102 -19 0 -21 -18 -3 -39
34 -40 94 -162 100 -202 l7 -44 -16 30 c-9 17 -26 41 -39 55 -12 14 -43 61
-69 105 -53 89 -84 127 -97 119 -14 -8 -10 -44 5 -50 8 -3 20 -20 26 -37 7
-18 24 -55 37 -84 14 -29 23 -64 21 -80 -4 -27 -4 -27 -25 17 -12 25 -38 83
-58 129 -34 79 -65 120 -92 121 -18 0 -16 -26 3 -55 9 -14 14 -32 10 -40 -3
-9 1 -44 9 -78 8 -34 15 -77 15 -95 0 -28 -2 -31 -18 -23 -11 6 -23 30 -29 58
-23 96 -68 172 -90 149 -3 -3 6 -33 22 -67 15 -34 29 -78 32 -99 5 -36 4 -37
-23 -35 -16 1 -33 3 -37 3 -4 1 -19 28 -33 60 -88 201 -115 247 -136 226 -3
-3 15 -51 42 -107 26 -56 51 -113 55 -127 l7 -25 -29 27 c-23 22 -32 25 -42
15 -10 -10 -15 -8 -27 8 -36 48 -97 105 -114 105 -24 0 -39 -22 -19 -28 8 -3
35 -27 62 -54 50 -53 61 -92 28 -101 -14 -3 -23 6 -40 40 -14 29 -27 43 -35
40 -8 -3 -24 6 -36 20 -27 31 -50 18 -33 -19 6 -13 15 -43 21 -68 6 -25 14
-54 18 -64 6 -15 4 -18 -9 -13 -25 9 -42 -19 -29 -48 15 -33 42 -150 42 -182
0 -20 -3 -23 -14 -14 -8 6 -19 52 -26 107 -12 92 -14 96 -36 91 -20 -4 -29 5
-59 59 -38 68 -51 82 -66 67 -6 -6 2 -30 21 -64 42 -74 78 -153 86 -186 11
-48 -18 -8 -77 104 -29 57 -59 105 -67 108 -28 11 -21 -25 21 -101 46 -82 61
-122 72 -189 8 -48 -7 -38 -25 17 -6 21 -16 40 -21 44 -5 3 -22 33 -38 67 -31
69 -75 127 -97 127 -22 0 -17 -16 20 -67 35 -50 112 -230 102 -240 -3 -3 -9 3
-12 13 -52 149 -129 272 -154 247 -10 -9 -5 -22 22 -60 35 -50 72 -123 65
-129 -2 -3 -25 32 -51 76 -51 86 -59 95 -82 86 -12 -5 -7 -18 25 -65 56 -82
88 -155 106 -246 19 -88 15 -111 -4 -32 -19 73 -56 160 -103 240 -43 72 -52
82 -68 72 -6 -4 12 -49 46 -111 36 -68 54 -111 49 -122 -5 -12 -17 7 -42 67
-38 92 -69 141 -90 141 -20 0 -15 -27 12 -68 14 -20 25 -40 25 -44 0 -4 11
-32 25 -62 14 -30 25 -60 25 -66 0 -6 9 -36 20 -67 11 -32 20 -66 19 -78 -1
-17 -2 -16 -8 5 -5 14 -19 48 -33 75 -14 28 -35 79 -48 113 -26 73 -84 142
-102 124 -8 -8 -5 -20 14 -44 14 -18 30 -43 37 -56 21 -40 90 -242 82 -242 -4
0 -18 33 -30 73 -53 163 -146 295 -176 247 -3 -6 9 -25 28 -43 40 -37 70 -94
103 -191 41 -120 25 -128 -31 -16 -23 46 -47 77 -71 94 -20 13 -42 33 -50 45
-16 22 -44 29 -44 10 0 -6 25 -48 55 -93 30 -46 62 -99 70 -119 15 -37 15 -37
-10 -37 -14 0 -25 4 -25 8 0 7 -74 137 -86 151 -2 2 -10 1 -19 -3 -15 -5 -14
-11 9 -51 47 -79 78 -145 73 -158 -2 -6 -20 20 -41 58 -66 126 -126 193 -126
141 0 -7 24 -49 54 -93 48 -72 96 -174 96 -204 0 -32 -28 10 -78 118 -41 87
-62 122 -74 123 -10 0 -18 -7 -18 -15 0 -13 -4 -14 -21 -4 -15 8 -24 8 -32 0
-12 -12 -1 -37 50 -121 22 -36 23 -42 7 -27 -43 36 -75 9 -34 -28 11 -10 20
-27 20 -37 0 -10 7 -35 15 -55 24 -57 9 -51 -20 9 -33 64 -53 88 -69 82 -7 -3
-21 4 -31 16 -10 11 -22 20 -27 20 -13 0 -9 -34 7 -56 39 -52 -19 -49 -62 4
-17 20 -25 24 -34 15 -9 -9 -2 -27 30 -73 53 -80 52 -94 -2 -34 -27 29 -48 45
-55 40 -16 -10 -15 -41 3 -56 13 -11 75 -114 75 -125 0 -18 -23 1 -39 34 -23
45 -69 101 -82 101 -13 0 -11 -34 3 -48 21 -21 -5 -13 -28 9 -14 13 -30 19
-39 15 -14 -5 -12 -11 11 -41 15 -20 24 -38 22 -41 -3 -3 -16 11 -28 30 -22
37 -50 48 -50 21 0 -8 14 -37 30 -63 32 -53 35 -62 20 -62 -5 0 -22 19 -37 43
-15 23 -33 48 -42 54 -12 11 -7 20 35 66 117 127 375 438 409 492 79 125 288
347 430 456 28 21 86 68 130 105 94 77 209 147 280 170 27 9 95 34 150 55 90
35 269 72 300 62 6 -1 89 -4 185 -6z m5085 -37 c-33 -16 -67 -30 -76 -30 -9 0
-19 -7 -22 -15 -4 -8 -28 -25 -54 -39 -26 -13 -76 -45 -111 -71 -52 -38 -61
-49 -51 -61 10 -12 23 -6 88 39 106 74 217 132 282 146 29 7 63 15 74 18 37
10 5 -11 -43 -27 -38 -13 -47 -21 -47 -40 0 -19 -10 -26 -55 -42 -97 -32 -300
-136 -300 -153 0 -8 5 -15 11 -15 6 0 68 27 137 61 147 72 202 90 240 80 27
-8 26 -8 -10 -15 -21 -4 -50 -17 -65 -30 -15 -13 -45 -26 -65 -30 -40 -7 -132
-65 -129 -81 2 -11 21 -11 61 0 20 5 19 2 -10 -17 -96 -63 -170 -121 -170
-134 0 -20 23 -17 53 6 29 23 37 25 37 8 0 -7 -25 -27 -54 -45 l-54 -31 -6 86
c-3 48 -8 119 -11 159 l-5 72 63 61 c93 92 236 169 312 169 l40 1 -60 -30z
m-3049 -111 c3 -5 12 -9 20 -9 8 0 27 -8 41 -17 15 -10 36 -16 48 -15 33 4 57
-58 47 -122 -7 -49 -32 -77 -32 -37 0 11 -6 24 -14 28 -8 4 -17 20 -19 34 -3
15 -10 35 -15 45 -6 11 -13 27 -16 37 -3 10 -12 17 -19 14 -8 -3 -11 -22 -8
-65 2 -41 -1 -62 -8 -62 -6 0 -11 19 -11 45 0 41 -2 45 -25 45 -19 0 -25 5
-25 23 0 13 -5 28 -11 34 -18 18 -4 42 21 36 11 -3 23 -9 26 -14z m529 -219
c4 -6 10 -8 15 -5 5 3 11 1 15 -5 3 -6 24 -19 45 -30 34 -17 38 -23 31 -43 -5
-12 -6 -47 -3 -79 4 -49 2 -57 -14 -60 -14 -2 -22 5 -29 27 -8 23 -16 30 -37
30 -22 -1 -28 5 -32 30 -19 104 -15 173 9 135z m351 -279 c94 -69 219 -220
420 -508 11 -16 13 -26 5 -40 -6 -10 -15 -37 -21 -60 -10 -39 -25 -61 -36 -51
-2 3 5 26 16 52 20 45 20 86 -1 86 -5 0 -14 12 -19 26 -6 14 -16 24 -23 21
-11 -3 -13 -10 -16 -60 -1 -13 -7 -16 -26 -11 -16 4 -30 0 -41 -10 -23 -23
-27 -14 -15 31 16 55 14 74 -9 80 -16 4 -20 14 -20 44 0 47 -25 54 -33 9 -4
-16 -12 -30 -18 -30 -11 0 -8 57 7 163 5 29 3 37 -10 37 -9 0 -24 -17 -33 -37
l-17 -38 -4 43 c-4 57 -26 54 -42 -5 -17 -63 -22 -71 -30 -48 -4 11 -2 36 3
57 5 21 7 44 3 53 -8 23 -36 18 -36 -7 0 -12 -3 -18 -7 -14 -4 4 -6 27 -4 51
2 35 -1 45 -13 45 -9 0 -16 -8 -16 -18 0 -9 -9 -34 -20 -55 -11 -20 -20 -45
-20 -54 -1 -25 -38 -102 -39 -81 -1 10 18 75 41 144 38 116 40 128 25 139 -13
9 -15 21 -11 44 4 17 10 31 14 31 4 0 25 -13 46 -29z m-1543 -102 c31 -60 55
-95 67 -97 19 -3 19 -13 -2 -80 -22 -73 -67 -18 -157 195 -37 89 -38 92 -17
96 37 6 60 -18 109 -114z m-153 94 c0 -22 70 -201 91 -234 43 -64 59 -110 59
-163 0 -38 7 -66 22 -93 35 -60 109 -132 148 -143 81 -23 170 -4 170 37 0 11
-6 13 -22 8 -13 -4 -48 -10 -78 -12 -70 -5 -114 19 -116 63 -1 16 -6 53 -13
83 -6 29 -11 70 -11 90 l1 36 14 -34 c8 -18 15 -44 15 -58 0 -33 39 -69 90
-83 24 -6 60 -23 81 -37 24 -16 60 -28 95 -32 l55 -6 -23 -35 c-31 -46 -134
-98 -202 -102 -45 -3 -51 -6 -50 -24 1 -33 -30 -19 -88 39 -63 63 -124 186
-138 277 -6 36 -16 81 -24 100 -7 19 -27 71 -45 116 -17 44 -31 99 -31 122 0
22 -4 44 -10 47 -5 3 -10 17 -10 31 0 13 5 24 10 24 6 0 10 -8 10 -17z m3635
-119 c10 -14 19 -15 66 -6 82 17 114 18 140 5 13 -6 36 -14 50 -17 17 -4 26
-12 25 -23 -1 -13 19 -24 89 -46 172 -54 301 -117 158 -77 -90 26 -229 49
-253 43 -10 -3 -21 -12 -24 -20 -5 -11 -18 -14 -54 -11 -26 1 -49 -1 -52 -7
-3 -5 20 -22 50 -38 51 -25 52 -27 20 -22 -19 3 -63 8 -97 11 -55 6 -63 5 -63
-10 0 -9 -7 -19 -15 -22 -28 -11 -15 -33 28 -46 l42 -13 -65 -5 c-49 -4 -65
-9 -65 -20 0 -8 -6 -19 -12 -23 -7 -4 -13 -15 -13 -22 0 -10 -11 -15 -34 -15
-35 0 -61 -20 -37 -28 7 -2 16 -15 21 -28 9 -22 14 -24 50 -18 36 6 40 4 40
-14 0 -16 -9 -21 -46 -27 -64 -9 -52 -30 17 -28 30 1 44 -1 32 -4 -27 -5 -30
-28 -5 -42 13 -8 6 -9 -26 -5 -27 4 -52 2 -66 -6 -18 -9 -29 -9 -44 -1 -16 9
-23 8 -29 -2 -4 -8 -16 -17 -26 -20 -13 -5 -16 -13 -12 -27 4 -13 2 -20 -7
-20 -8 0 -19 -5 -26 -12 -9 -9 -7 -17 8 -33 l20 -22 -22 1 c-16 1 -22 -4 -19
-14 2 -8 6 -24 9 -35 5 -19 4 -19 -20 3 -30 28 -54 28 -68 1 -13 -23 -11 -27
21 -43 26 -13 22 -31 -7 -32 -28 0 -68 -39 -61 -58 11 -29 -18 -16 -65 30 -27
25 -48 49 -48 53 0 4 13 17 30 29 16 12 69 68 117 125 133 155 196 303 225
531 12 98 17 109 57 130 36 19 52 19 66 0z m-3130 -35 c4 -11 10 -19 15 -19
11 0 60 -45 60 -54 0 -4 -6 -6 -12 -3 -7 2 -30 -11 -51 -29 -30 -28 -45 -34
-82 -34 -37 0 -45 3 -45 18 0 10 5 23 11 29 6 6 13 38 16 70 l6 60 38 -10 c23
-5 41 -17 44 -28z m180 -92 c-8 -29 9 -44 30 -27 13 11 15 7 15 -23 0 -29 4
-36 26 -41 24 -6 26 -10 19 -44 -8 -45 -22 -61 -66 -72 -19 -5 -52 -15 -74
-24 -50 -19 -96 -20 -120 -2 -18 13 -18 14 2 20 66 21 117 104 128 208 7 65 8
66 27 49 13 -13 17 -26 13 -44z m-694 -251 c12 -55 25 -107 29 -115 4 -9 20
-43 35 -76 30 -67 45 -87 93 -127 32 -27 33 -28 9 -28 -97 0 -167 98 -216 303
-26 109 -27 179 -4 214 l18 27 8 -49 c4 -28 17 -95 28 -149z m-128 139 c-4
-32 -1 -57 11 -83 8 -20 25 -76 36 -125 11 -48 27 -104 35 -124 8 -20 13 -38
11 -40 -7 -7 -75 93 -96 141 -45 106 -65 236 -36 236 8 0 18 9 21 20 12 38 25
20 18 -25z m2340 -257 c30 -40 103 -121 163 -179 94 -92 108 -110 102 -130 -3
-13 -16 -67 -27 -119 -16 -70 -31 -109 -58 -147 -19 -29 -39 -53 -44 -53 -15
0 -21 22 -10 33 6 6 11 17 11 23 0 7 14 34 32 60 39 58 77 150 78 187 0 35
-27 37 -36 2 -11 -43 -24 -27 -17 21 5 40 4 46 -16 51 -12 3 -24 16 -27 29 -3
13 -12 24 -19 24 -7 0 -25 12 -40 28 l-27 27 -17 -25 c-26 -39 -139 -150 -153
-150 -7 0 20 33 59 73 39 39 76 82 82 94 18 35 -6 39 -40 7 -31 -30 -39 -18
-13 21 18 28 11 60 -11 51 -11 -4 -13 1 -8 24 4 24 2 30 -11 30 -13 0 -16 9
-14 45 0 25 3 45 4 45 2 0 28 -33 57 -72z m-1721 -273 c51 -16 89 -78 95 -159
5 -60 3 -69 -22 -106 -34 -49 -70 -81 -42 -37 28 44 37 114 24 187 -9 46 -17
65 -27 65 -10 0 -14 -8 -12 -25 9 -95 5 -167 -11 -197 -10 -18 -21 -33 -25
-33 -4 0 -8 55 -8 123 -1 80 -7 139 -17 171 -9 27 -13 54 -10 60 4 5 10 -1 15
-15 5 -16 20 -28 40 -34z m3543 45 c4 -6 26 -20 49 -30 64 -31 174 -123 206
-173 31 -50 66 -78 85 -71 30 12 26 -36 -7 -96 -18 -33 -35 -60 -39 -60 -3 0
-21 21 -39 47 -19 26 -53 68 -75 93 -77 87 -99 120 -87 132 8 8 24 -3 59 -42
60 -67 101 -118 105 -132 3 -7 12 -9 21 -5 16 6 16 9 3 34 -14 28 -129 166
-178 214 -14 15 -51 41 -82 58 -31 18 -56 34 -56 37 0 9 29 4 35 -6z m-1399
-120 c26 -11 79 -25 119 -31 l71 -11 13 -59 c6 -32 16 -116 21 -186 5 -71 11
-148 14 -173 4 -29 3 -36 -2 -20 -11 36 -37 32 -38 -5 -2 -57 -16 -130 -31
-159 -8 -15 -12 -37 -10 -47 3 -12 -14 -57 -43 -111 l-48 -91 -26 50 -25 51
24 34 c13 18 35 56 48 84 13 28 34 60 45 70 29 27 42 118 42 297 l0 147 -25
10 c-15 6 -27 21 -33 42 -9 35 -10 35 -108 38 -12 0 -26 11 -33 26 -13 29 -31
24 -31 -9 0 -12 -10 -67 -23 -123 -16 -73 -35 -122 -67 -177 -41 -73 -44 -76
-62 -60 -26 23 -22 44 17 96 48 63 81 132 101 207 14 56 14 63 0 79 -45 50 5
67 90 31z m-6026 -13 c0 -7 -9 -18 -20 -24 -19 -12 -19 -14 6 -68 14 -30 24
-65 21 -77 -3 -20 -7 -17 -22 20 -10 23 -22 42 -26 42 -18 0 -20 -25 -4 -92 9
-39 13 -73 11 -76 -6 -6 -10 5 -26 66 -8 32 -15 42 -28 40 -10 -2 -16 -11 -14
-21 2 -10 -3 -17 -10 -16 -29 3 -38 -2 -38 -22 0 -17 -3 -19 -14 -10 -25 21
-28 -6 -6 -75 20 -66 28 -170 11 -160 -4 3 -11 31 -15 63 -6 54 -17 97 -37
151 -5 12 -16 22 -25 22 -12 0 -15 -6 -10 -22 21 -71 37 -312 20 -295 -4 3
-15 54 -25 112 -20 110 -49 185 -73 185 -24 0 -26 -13 -6 -46 25 -40 56 -195
65 -329 8 -120 12 -135 32 -135 14 0 15 11 10 75 -6 70 -5 75 13 75 18 0 20
-7 20 -64 0 -73 6 -96 26 -96 11 0 14 20 14 94 0 52 4 97 9 100 9 6 21 -63 21
-120 0 -18 4 -34 10 -36 16 -5 14 -80 -4 -122 -9 -21 -16 -49 -16 -61 0 -12
-7 -28 -15 -35 -8 -7 -15 -18 -15 -25 0 -7 -13 -24 -29 -38 -31 -26 -30 -21
-76 -312 -8 -49 -22 -126 -32 -169 l-18 -80 -115 3 c-162 4 -387 46 -520 98
-97 38 -97 38 -46 114 25 37 81 138 125 225 69 136 79 161 66 170 -27 20 -17
64 25 121 39 51 70 77 36 31 -46 -65 -60 -108 -35 -108 10 0 109 144 127 184
7 16 14 27 16 25 8 -7 -24 -169 -40 -207 -8 -20 -28 -73 -43 -117 -34 -96 -48
-126 -129 -271 -34 -61 -62 -118 -62 -127 0 -44 32 -4 106 131 99 181 148 290
163 362 13 63 31 99 31 64 0 -36 -50 -265 -64 -293 -23 -46 -77 -221 -71 -232
9 -14 23 -2 45 39 23 44 24 28 5 -53 -19 -77 -19 -87 1 -83 19 4 35 57 64 223
42 236 60 298 84 289 8 -3 19 2 24 13 14 25 30 139 38 268 8 133 18 170 28
105 8 -55 25 -288 26 -349 0 -38 2 -43 20 -38 18 5 20 0 20 -54 0 -47 3 -59
15 -59 13 0 15 -7 10 -34 -7 -36 6 -54 23 -33 6 7 19 62 29 122 31 187 14 638
-26 725 -48 102 -71 108 -71 21 0 -43 -4 -60 -15 -65 -8 -3 -15 -12 -15 -20 0
-26 -39 -6 -42 23 -3 23 -8 26 -38 26 l-35 0 -5 -110 c-6 -133 -20 -107 -20
38 0 90 -2 99 -20 104 -13 4 -20 14 -20 30 0 13 -11 35 -25 49 -14 14 -25 29
-25 34 0 13 -7 12 -30 0 -16 -9 -18 -6 -17 25 1 39 4 41 32 21 31 -21 85 -35
154 -41 69 -6 92 -1 216 48 76 30 107 47 220 123 51 34 95 44 95 21z m7225
-21 c24 -19 54 -37 65 -41 14 -4 19 -12 16 -23 -4 -12 23 -45 85 -107 72 -72
98 -106 130 -171 21 -44 39 -88 39 -97 0 -8 7 -23 16 -31 14 -14 6 -26 -88
-122 -95 -97 -255 -234 -275 -234 -4 0 -8 42 -8 93 l0 92 -67 135 c-37 74 -86
160 -109 190 -29 38 -34 47 -15 30 29 -26 161 -233 228 -357 23 -42 46 -73 55
-73 25 0 7 45 -69 174 -53 90 -67 120 -57 127 17 10 -4 57 -57 125 -20 27 -31
50 -25 52 24 8 15 25 -69 135 -12 15 -19 27 -17 27 8 0 200 -240 229 -285 14
-22 33 -53 44 -70 21 -34 39 -93 55 -179 11 -68 18 -81 30 -69 12 12 -16 176
-41 242 -12 29 -19 55 -17 57 6 6 54 -106 62 -143 7 -33 21 -50 32 -39 9 8
-13 81 -44 148 -25 54 -27 78 -6 65 5 -3 31 -49 58 -101 28 -53 56 -96 62 -96
7 0 13 3 13 6 0 11 -110 226 -131 255 -39 55 -12 41 48 -25 33 -36 74 -95 92
-131 18 -38 37 -65 44 -62 34 12 -35 146 -120 233 -99 101 -262 304 -244 304
6 0 31 -15 56 -34z m-7975 -61 c14 -17 7 -28 -55 -90 -16 -17 -58 -67 -92
-110 -33 -44 -71 -89 -82 -99 -21 -19 -21 -19 -21 13 0 24 12 45 53 89 30 32
74 87 98 121 24 35 48 70 54 77 13 18 30 18 45 -1z m6888 -176 c3 -58 -1 -108
-11 -150 -8 -35 -15 -78 -14 -94 0 -29 -76 -199 -94 -211 -22 -13 -18 27 5 61
58 85 116 377 88 440 -7 14 -12 45 -11 68 l1 42 15 -35 c9 -19 18 -74 21 -121z
m1375 36 c80 -80 147 -161 147 -178 -1 -7 -16 -30 -35 -52 -32 -37 -35 -38
-35 -16 0 12 -18 61 -40 108 -31 66 -56 102 -115 162 -41 43 -75 81 -75 85 0
18 90 -46 153 -109z m-1533 -92 c0 -4 -10 -38 -22 -75 -19 -59 -20 -71 -8 -78
12 -7 12 -12 0 -35 -14 -27 -4 -80 15 -80 6 0 27 34 47 75 20 41 37 72 37 69
1 -8 -66 -199 -72 -205 -4 -5 -34 38 -94 135 -12 20 -22 42 -23 49 0 8 19 45
41 83 28 46 47 69 60 69 11 0 19 -3 19 -7z m1036 -138 c24 -52 49 -95 54 -95
14 0 13 15 -5 57 -28 67 -9 43 39 -48 44 -84 48 -99 53 -178 2 -47 8 -103 13
-124 7 -32 5 -39 -11 -48 -14 -7 -19 -6 -19 3 0 7 -7 55 -14 105 -11 72 -22
106 -49 150 -19 32 -59 106 -90 166 -49 95 -53 107 -35 107 15 0 30 -22 64
-95z m-98 23 c16 -29 35 -69 43 -88 7 -19 32 -69 55 -110 23 -41 49 -106 59
-144 9 -38 21 -77 26 -87 5 -11 13 -28 19 -38 8 -17 3 -23 -28 -43 -98 -61
-350 -150 -472 -167 -41 -5 -75 -9 -77 -8 -1 2 5 25 14 52 12 39 16 98 17 275
1 124 -3 245 -7 270 -9 49 2 49 12 0 8 -41 25 -39 31 2 6 41 15 28 25 -36 9
-62 14 -76 30 -76 25 0 6 -242 -25 -320 -11 -27 -16 -52 -11 -54 29 -18 71
129 71 245 0 60 4 89 11 89 8 0 10 17 6 54 -5 51 -4 54 18 58 34 7 55 -9 55
-42 0 -15 5 -30 10 -32 18 -6 22 -158 7 -253 -15 -93 -14 -106 4 -88 16 16 28
87 29 165 0 37 4 69 10 73 11 7 38 -80 48 -160 4 -33 12 -59 17 -60 44 -1 -25
255 -83 313 -16 16 -21 36 -23 91 -3 87 7 103 16 26 8 -61 32 -74 27 -13 -2
22 2 39 12 47 13 11 17 9 27 -15 32 -87 85 -353 75 -380 -8 -20 4 -94 15 -94
17 0 21 75 9 164 -15 111 -42 223 -81 335 -41 120 -39 134 9 49z m-7818 -9
c-5 -17 -30 -55 -55 -85 -38 -44 -51 -53 -69 -48 -18 4 -35 -6 -77 -43 -119
-107 -322 -245 -423 -288 -36 -15 -66 -34 -66 -42 0 -60 306 117 497 289 24
21 48 38 55 38 22 -1 -220 -214 -336 -296 -73 -52 -91 -74 -59 -74 21 0 148
84 203 134 74 67 83 70 37 11 -26 -34 -80 -90 -122 -125 -72 -63 -86 -82 -65
-95 12 -8 155 119 210 186 24 30 80 91 124 136 71 73 80 87 81 120 0 22 5 38
14 41 8 3 11 0 8 -5 -3 -5 -2 -15 2 -22 13 -20 47 -4 61 29 7 17 17 30 22 30
12 0 0 -40 -19 -62 -8 -9 -22 -30 -31 -46 -37 -66 -138 -183 -259 -302 -70
-69 -139 -132 -152 -141 -25 -16 -22 -39 5 -39 20 0 274 248 347 340 60 76 83
97 95 86 20 -20 -88 -169 -270 -374 -106 -119 -121 -142 -95 -142 22 0 224
223 314 346 40 54 59 73 61 61 5 -27 24 -20 60 20 18 21 30 31 26 23 -12 -26
-48 -62 -70 -70 -12 -5 -32 -27 -45 -49 -36 -61 -138 -201 -175 -241 -44 -47
-104 -132 -104 -147 0 -30 31 -8 79 55 69 90 146 190 175 227 42 53 42 16 1
-63 -48 -91 -116 -198 -174 -270 l-42 -52 -78 53 c-188 130 -321 243 -401 345
-41 51 -42 54 -24 67 11 8 23 15 28 15 11 0 317 174 376 214 67 45 230 176
230 184 0 5 -5 13 -10 18 -18 18 28 67 55 60 14 -4 28 0 35 9 20 24 29 17 20
-16z m7276 -350 c-24 -68 -47 -132 -51 -141 -5 -13 -2 -18 9 -18 9 0 16 5 16
12 0 6 3 9 6 6 3 -4 -2 -20 -10 -37 -18 -35 -20 -51 -6 -51 13 0 46 66 90 183
22 60 39 93 43 84 4 -10 13 -13 26 -10 18 5 21 1 21 -28 0 -19 -7 -59 -15 -89
-18 -65 -18 -80 -5 -80 6 0 12 6 15 13 2 6 11 35 19 62 l16 50 -5 -95 c-2 -52
-11 -119 -20 -147 l-16 -53 -144 0 -145 0 -21 43 c-12 23 -32 55 -45 70 -47
56 -43 86 20 129 l31 21 -34 -36 c-22 -23 -31 -41 -27 -52 5 -14 12 -12 48 17
l42 33 -27 -40 c-18 -26 -23 -41 -15 -44 24 -8 100 114 144 232 24 65 30 73
40 59 11 -15 14 -14 24 12 6 16 13 27 16 24 2 -3 -15 -61 -40 -129z m-1856
-100 c13 -9 13 -11 0 -16 -23 -9 -87 -81 -100 -114 l-13 -30 -34 33 c-31 30
-63 77 -63 93 0 3 19 15 43 25 46 21 142 26 167 9z m143 -500 c46 -28 57 -31
111 -27 34 3 68 8 76 11 12 5 24 -20 58 -121 24 -70 53 -172 64 -227 11 -55
27 -112 34 -127 18 -34 33 -335 16 -324 -6 3 -18 30 -28 59 -9 28 -29 77 -45
107 -15 30 -45 96 -67 145 -22 50 -54 114 -71 143 -17 29 -31 56 -31 60 0 15
-82 168 -109 202 -32 42 -71 108 -71 121 0 14 9 11 63 -22z m-4494 -1279 c4 0
-37 -45 -89 -100 -63 -65 -104 -100 -118 -100 -27 0 -69 39 -77 72 -7 28 9 44
100 93 48 26 135 47 163 39 8 -2 17 -4 21 -4z m-524 -279 c6 -11 -42 -50 -95
-76 -33 -17 -143 -25 -156 -12 -9 9 38 67 66 83 29 15 176 19 185 5z m1429
-583 c-16 -72 -8 -116 33 -175 21 -30 50 -66 65 -79 16 -12 28 -25 28 -27 0
-10 -94 -14 -124 -6 -37 10 -90 62 -105 101 -13 36 17 133 52 162 13 12 27 29
30 39 11 32 29 19 21 -15z m371 -454 c42 -43 95 -86 125 -102 93 -47 113 -103
55 -155 -30 -28 -82 -67 -88 -67 -2 0 0 17 6 39 14 50 -3 91 -53 131 -35 28
-129 60 -190 65 -37 3 -38 3 -50 24 -15 30 -1 76 36 116 46 50 68 43 159 -51z
m2331 -2073 c-10 -11 -29 -22 -43 -26 -36 -9 -167 -119 -208 -175 -35 -48 -65
-119 -65 -157 0 -12 -5 -25 -11 -28 -7 -5 -9 -50 -6 -136 l4 -129 -25 22 c-44
42 -55 75 -49 153 5 72 47 200 85 265 20 34 105 114 167 157 29 20 139 70 159
72 5 1 1 -8 -8 -18z m-73 -83 c-31 -35 -123 -193 -123 -212 0 -10 -5 -26 -10
-36 -6 -10 -14 -60 -19 -110 -10 -96 4 -244 29 -289 6 -13 10 -24 8 -26 -5 -6
-51 38 -85 81 -32 41 -32 42 -33 160 -2 200 34 279 179 400 69 58 87 68 54 32z"/>
<path d="M3714 10698 c-5 -7 -7 -20 -6 -29 2 -9 -4 -19 -12 -22 -11 -4 -14
-18 -11 -54 18 -245 18 -287 -3 -360 -20 -71 -20 -83 4 -83 20 0 54 148 54
233 0 62 3 77 15 77 31 0 13 212 -20 240 -10 8 -15 7 -21 -2z"/>
<path d="M3374 10679 c-3 -6 -2 -21 4 -32 50 -107 75 -220 71 -325 -3 -61 -1
-77 10 -77 22 0 33 53 26 136 -11 159 -81 346 -111 298z"/>
<path d="M3295 10670 c-3 -5 -2 -18 3 -27 6 -10 21 -63 35 -118 21 -88 24
-112 17 -201 -4 -56 -10 -107 -14 -113 -4 -6 0 -14 9 -18 10 -3 20 0 24 6 14
23 33 177 26 217 -12 67 -58 238 -68 252 -11 15 -24 16 -32 2z"/>
<path d="M3110 10656 c0 -8 4 -17 9 -20 5 -3 30 -49 56 -102 48 -98 64 -167
65 -271 0 -40 4 -53 15 -53 22 0 28 60 16 152 -8 63 -22 105 -57 178 -25 52
-53 103 -61 113 -19 21 -43 22 -43 3z"/>
<path d="M2788 10624 c-4 -3 -2 -20 3 -37 16 -54 48 -429 35 -416 -2 2 -9 49
-16 104 -14 120 -33 173 -66 181 -13 3 -32 21 -43 40 -35 59 -63 38 -32 -23
40 -80 81 -184 81 -208 0 -5 -10 5 -21 23 -12 17 -28 32 -37 32 -11 0 -29 26
-51 75 -35 78 -66 125 -82 125 -17 0 -9 -25 31 -105 67 -133 56 -137 -56 -20
-45 47 -87 85 -93 85 -15 0 -14 -33 2 -49 10 -11 8 -11 -12 -1 -17 9 -26 9
-34 1 -9 -9 1 -22 36 -52 32 -27 46 -47 43 -58 -5 -16 14 -84 27 -97 4 -4 7
-11 7 -16 0 -6 -32 20 -72 56 -79 73 -127 101 -143 85 -7 -7 -2 -16 13 -27 71
-51 166 -140 237 -221 58 -67 85 -91 100 -89 20 3 23 18 9 52 -5 13 -4 17 3
13 6 -4 24 -40 39 -80 15 -39 33 -78 40 -86 17 -19 35 -5 25 22 -8 25 13 160
22 137 3 -8 7 -37 10 -63 3 -26 7 -51 11 -54 3 -3 17 6 32 20 24 25 26 33 29
134 3 128 -19 427 -36 483 -11 36 -26 49 -41 34z"/>
<path d="M3048 10625 c-4 -4 0 -21 7 -38 36 -88 60 -377 36 -454 -16 -54 12
-61 35 -8 28 67 15 280 -28 450 -12 46 -33 67 -50 50z"/>
<path d="M2861 10592 c-6 -12 -3 -48 10 -112 10 -52 22 -132 25 -177 5 -59 11
-83 20 -83 14 0 20 18 27 75 2 17 5 0 6 -36 1 -59 3 -67 22 -72 20 -5 21 -11
16 -61 -6 -63 4 -71 41 -31 46 48 54 325 13 415 -33 71 -54 95 -74 87 -13 -5
-13 -11 3 -44 30 -63 32 -77 10 -91 -17 -11 -20 -9 -27 16 -13 54 -53 132 -68
132 -8 0 -19 -8 -24 -18z"/>
<path d="M2115 10310 c-10 -16 19 -45 100 -100 83 -57 231 -206 269 -272 16
-27 32 -48 36 -48 20 0 20 22 1 66 -25 56 -196 226 -291 290 -36 24 -75 51
-87 59 -15 12 -23 13 -28 5z"/>
<path d="M1940 10000 c0 -5 33 -34 73 -63 75 -57 124 -103 115 -112 -2 -3 -18
5 -35 18 -48 35 -150 80 -167 74 -21 -8 -20 -26 2 -33 47 -14 123 -56 178 -98
40 -30 68 -44 78 -40 16 6 96 -40 96 -55 0 -4 19 -26 41 -49 40 -40 59 -46 59
-17 0 20 -310 323 -365 357 -46 28 -75 36 -75 18z"/>
<path d="M1910 9826 c0 -7 25 -23 56 -34 72 -28 213 -130 291 -212 42 -42 66
-61 73 -54 12 12 -28 74 -74 114 -150 132 -346 237 -346 186z"/>
<path d="M1800 9765 c0 -8 43 -36 102 -66 125 -65 215 -136 336 -268 88 -95
122 -119 122 -88 0 21 -219 246 -288 297 -74 53 -230 139 -254 140 -10 0 -18
-7 -18 -15z"/>
<path d="M1737 9673 c-14 -13 -6 -23 36 -41 57 -26 260 -152 323 -201 29 -22
79 -73 111 -113 55 -68 93 -96 93 -68 0 6 -26 45 -57 86 -59 77 -131 139 -218
189 -28 16 -75 45 -105 66 -58 38 -153 89 -168 89 -5 0 -12 -3 -15 -7z"/>
<path d="M1594 9579 c-12 -19 19 -37 130 -75 60 -20 137 -49 171 -64 87 -39
204 -133 266 -213 48 -63 54 -67 66 -51 7 10 13 25 13 34 0 20 -130 149 -195
195 -55 38 -183 105 -201 105 -7 0 -31 9 -55 20 -24 11 -57 20 -72 20 -15 0
-45 9 -67 20 -46 23 -47 23 -56 9z"/>
<path d="M1550 9396 c0 -8 22 -21 50 -30 59 -19 271 -139 417 -236 56 -37 105
-65 108 -62 21 22 -31 64 -240 189 -223 134 -335 181 -335 139z"/>
<path d="M1795 9370 c-9 -14 3 -30 22 -30 26 0 180 -87 270 -151 80 -58 113
-71 113 -46 0 19 -173 139 -277 191 -95 47 -117 53 -128 36z"/>
<path d="M1867 9043 c-13 -12 -7 -23 23 -38 17 -9 30 -22 30 -30 0 -10 11 -15
33 -15 32 -1 55 -15 157 -98 47 -38 70 -46 70 -22 0 18 -152 138 -219 174 -71
37 -83 41 -94 29z"/>
<path d="M1395 8791 c-17 -3 -30 -13 -30 -21 0 -10 9 -14 30 -13 154 9 369 -2
344 -18 -8 -5 -43 -9 -79 -9 -36 0 -71 -4 -79 -9 -23 -15 -2 -31 41 -31 36 0
40 -2 35 -21 -7 -28 12 -33 56 -14 49 20 66 19 60 -4 -6 -24 -41 -31 -152 -31
-101 0 -131 -7 -131 -28 0 -15 44 -15 330 3 19 1 74 3 122 3 86 2 88 2 103 32
9 17 22 30 30 30 44 0 -21 64 -81 80 -27 7 -54 17 -60 22 -30 23 -460 46 -539
29z"/>
<path d="M1869 8576 c-59 -6 -113 -16 -120 -22 -9 -7 -98 -14 -241 -18 -233
-8 -279 -13 -286 -35 -3 -9 48 -11 244 -6 436 10 555 16 560 29 8 22 -14 66
-33 65 -10 -1 -66 -7 -124 -13z"/>
<path d="M1899 8486 c-2 -2 -76 -12 -164 -21 -134 -14 -163 -20 -177 -36 -16
-19 -28 -20 -165 -17 -126 3 -148 1 -148 -12 0 -26 313 -36 468 -15 67 9 160
20 207 25 131 12 162 20 158 39 -3 13 -13 15 -51 13 -38 -3 -47 -1 -47 12 0
12 -10 16 -38 16 -21 0 -41 -2 -43 -4z"/>
<path d="M10650 8929 c-52 -4 -108 -12 -123 -18 -31 -12 -32 -37 -1 -34 146
19 264 24 460 21 237 -3 284 4 175 28 -58 13 -364 15 -511 3z"/>
<path d="M9355 10329 c-38 -21 -107 -52 -152 -68 -116 -43 -243 -108 -243
-126 0 -23 17 -19 100 24 41 21 103 48 137 59 68 24 199 84 226 105 18 15 22
33 10 40 -5 2 -39 -13 -78 -34z"/>
<path d="M6050 7409 c-63 -4 -133 -16 -175 -29 -38 -12 -99 -31 -135 -42 -107
-34 -257 -119 -245 -139 4 -5 32 8 63 29 115 78 304 136 483 149 94 6 110 -1
78 -36 -16 -17 -19 -27 -11 -49 5 -15 17 -29 27 -31 10 -2 27 -14 38 -27 10
-14 24 -24 30 -23 31 4 36 -2 31 -31 -7 -33 9 -40 38 -17 19 15 30 55 16 63
-5 3 -7 12 -4 20 3 9 -2 18 -12 21 -9 4 -28 17 -42 30 -14 13 -31 23 -38 23
-10 0 -12 6 -7 18 15 34 11 64 -10 71 -11 4 -67 4 -125 0z"/>
<path d="M5478 7011 c-27 -49 -48 -94 -48 -100 0 -14 37 -15 45 -1 7 12 35 13
35 2 0 -5 -16 -27 -35 -49 -22 -26 -35 -52 -35 -70 0 -15 -4 -34 -9 -41 -15
-24 -1 -62 23 -62 14 0 26 -10 34 -29 28 -64 147 -160 214 -173 23 -4 25 15 2
27 -84 44 -184 145 -184 185 0 27 155 131 243 162 43 16 83 28 89 28 5 0 -4
-16 -20 -35 -31 -34 -52 -89 -52 -134 0 -41 36 -86 95 -115 50 -26 62 -28 118
-22 74 8 151 54 197 118 26 35 30 50 30 102 0 54 -4 66 -31 99 -17 21 -29 40
-26 43 3 3 36 2 74 -2 60 -6 72 -11 99 -40 29 -32 54 -44 54 -26 0 10 -97 193
-109 204 -4 5 -40 3 -81 -4 -41 -6 -124 -12 -185 -13 -110 -1 -129 -5 -305
-60 -50 -16 -77 -21 -81 -13 -4 5 -15 7 -25 4 -19 -6 -20 -5 -55 82 -5 12 -12
22 -16 22 -5 0 -29 -40 -55 -89z"/>
<path d="M5620 6655 c0 -23 58 -83 109 -113 25 -14 51 -32 58 -38 19 -19 201
-48 286 -47 54 1 87 7 104 18 13 9 22 19 19 23 -4 3 -50 5 -104 3 -98 -2 -214
15 -303 44 -51 17 -139 88 -139 111 0 8 -7 14 -15 14 -8 0 -15 -7 -15 -15z"/>
<path d="M4800 6294 c-6 -14 -10 -28 -10 -31 0 -3 -21 -48 -47 -99 -26 -52
-43 -97 -38 -101 4 -5 10 -2 12 5 3 6 9 12 14 12 6 0 7 -5 4 -10 -4 -6 1 -22
10 -36 9 -14 14 -32 11 -39 -3 -8 -1 -17 4 -20 6 -4 10 -15 10 -26 0 -10 9
-36 20 -57 11 -20 23 -54 26 -74 7 -39 24 -53 24 -19 0 11 -7 48 -16 82 -10
38 -14 78 -10 102 4 24 2 45 -5 53 -9 10 -7 24 5 55 16 40 16 43 -4 64 -24 25
-25 41 -6 86 7 19 17 44 20 57 10 31 -12 28 -24 -4z"/>
<path d="M6795 5761 c-137 -38 -264 -107 -331 -182 -30 -35 -78 -117 -98 -171
-24 -63 -26 -172 -3 -218 67 -136 123 -230 137 -230 15 0 12 16 -5 34 -8 8
-15 17 -15 20 0 3 -19 44 -42 93 -39 80 -43 95 -43 163 0 67 5 84 42 162 69
145 158 224 291 257 95 24 312 14 392 -18 180 -72 316 -166 432 -300 23 -27
43 -41 52 -38 8 3 20 -1 26 -8 7 -8 16 -12 20 -10 5 3 21 -11 36 -30 15 -20
33 -34 40 -31 6 2 20 -4 29 -14 16 -18 67 -21 83 -5 6 6 30 -15 106 -94 19
-18 38 -31 44 -27 5 3 28 -4 51 -16 22 -12 44 -18 48 -15 7 8 -65 87 -80 87
-8 0 -73 52 -152 123 -23 20 -47 37 -52 37 -5 0 -18 9 -28 20 -10 11 -26 18
-35 15 -10 -3 -32 11 -60 40 -33 34 -58 49 -111 65 -37 11 -80 31 -96 44 -78
65 -261 174 -328 196 -22 7 -44 16 -50 20 -35 27 -238 47 -300 31z"/>
<path d="M6663 5466 c-69 -22 -108 -52 -138 -108 -33 -61 -38 -140 -12 -200
21 -50 52 -52 63 -6 3 18 15 51 25 73 10 22 28 66 41 99 25 64 44 81 101 91
58 11 103 -2 143 -42 42 -42 63 -34 38 16 -13 25 -32 41 -80 62 -69 31 -115
35 -181 15z"/>
<path d="M6975 5220 c-74 -11 -88 -17 -121 -51 -64 -67 -20 -157 98 -199 96
-33 198 -20 198 25 0 8 -26 32 -58 54 -102 69 -117 161 -21 133 42 -12 73 -43
111 -112 75 -134 101 -266 73 -364 -16 -56 -14 -79 5 -60 14 14 30 108 30 178
0 108 -50 247 -121 338 -27 33 -101 71 -133 67 -6 -1 -34 -5 -61 -9z"/>
<path d="M7270 5096 c0 -8 5 -18 10 -21 23 -14 59 -106 74 -186 20 -103 25
-119 36 -119 6 0 12 11 16 25 3 14 12 25 18 25 14 0 71 -163 81 -233 7 -48 18
-66 30 -47 10 16 -21 144 -56 235 -17 44 -41 108 -52 142 -16 46 -26 62 -37
58 -11 -3 -21 8 -34 38 -17 42 -62 97 -78 97 -4 0 -8 -6 -8 -14z"/>
<path d="M5852 2716 c-53 -57 -74 -100 -96 -199 -11 -47 -8 -174 4 -197 9 -17
9 -21 0 -15 -7 4 -18 22 -26 41 -17 40 -19 226 -3 272 6 17 9 41 7 54 -7 41
-48 -107 -54 -198 -10 -119 6 -154 120 -275 50 -53 127 -140 171 -194 44 -54
96 -117 116 -139 19 -23 57 -74 84 -114 37 -57 49 -84 50 -115 1 -39 -4 -48
-67 -116 -60 -65 -79 -91 -63 -91 2 0 47 43 99 95 52 52 89 95 81 95 -11 0
-14 14 -14 59 2 104 -40 214 -117 309 -60 73 -64 48 -5 -29 51 -67 106 -198
99 -239 -2 -18 -11 -10 -48 46 -25 38 -93 133 -152 211 -142 189 -142 188
-133 286 9 111 30 183 66 229 31 39 33 62 4 38 -47 -39 -71 -112 -93 -285 l-8
-60 -37 66 c-43 76 -61 153 -51 224 9 72 52 181 91 232 18 24 33 45 33 48 0
15 -22 0 -58 -39z"/>
<path d="M6171 2514 c-17 -14 -50 -58 -74 -97 -52 -85 -65 -152 -41 -219 23
-66 117 -196 213 -295 105 -108 117 -138 82 -208 -11 -23 -21 -58 -21 -77 0
-37 -30 -75 -49 -63 -6 3 -14 -2 -18 -12 -4 -10 -28 -44 -54 -77 -81 -101
-101 -146 -107 -247 -6 -112 3 -134 83 -203 65 -55 127 -76 175 -61 36 11 21
20 -35 21 -59 2 -73 9 -149 77 -49 43 -50 45 -54 112 -6 97 11 161 63 233 24
33 48 62 52 65 5 3 8 -27 8 -66 0 -65 4 -79 37 -137 20 -36 47 -72 60 -80 121
-76 131 -81 190 -94 18 -4 37 -21 53 -47 55 -86 152 -172 293 -257 60 -37 62
-37 62 -17 0 8 -5 15 -11 15 -24 0 -189 119 -250 181 -120 120 -152 235 -115
417 18 89 20 116 7 108 -18 -11 -36 -136 -36 -248 0 -65 -3 -118 -6 -118 -15
0 -117 109 -132 142 -22 47 -21 86 4 177 18 66 67 166 89 181 24 16 28 48 11
76 -9 16 -23 48 -29 72 -11 37 -25 52 -107 112 -52 39 -95 74 -95 78 0 5 -17
26 -37 48 -70 74 -114 139 -130 193 -30 104 6 224 87 293 22 19 40 38 40 41 0
15 -30 5 -59 -19z m163 -1086 c7 -118 23 -171 72 -235 28 -37 26 -40 -15 -19
-38 20 -83 73 -111 130 -19 41 -22 58 -17 118 4 54 11 76 28 94 12 13 26 24
29 24 4 0 10 -50 14 -112z"/>
</g>
</svg>
